<?xml version="1.0" encoding="UTF-8" standalone="no"?>
<!DOCTYPE svg PUBLIC "-//W3C//DTD SVG 1.1//EN" "http://www.w3.org/Graphics/SVG/1.1/DTD/svg11.dtd">
<!-- Created with Vectornator (http://vectornator.io/) -->
<svg height="100%" stroke-miterlimit="10" style="fill-rule:nonzero;clip-rule:evenodd;stroke-linecap:round;stroke-linejoin:round;" version="1.1" viewBox="0 0 172.973 175.526" width="100%" xml:space="preserve" xmlns="http://www.w3.org/2000/svg" xmlns:xlink="http://www.w3.org/1999/xlink">
<defs/>
<g id="Symbols">
<g opacity="1">
<path d="M88.6485 146.977C121.597 147.206 148.838 120.347 149.068 87.3962C149.297 54.4456 122.428 27.2093 89.4786 26.9798C56.462 26.7498 29.3 53.6099 29.0706 86.5605C28.8411 119.511 55.6318 146.747 88.6485 146.977ZM88.6738 143.358C57.5449 143.141 32.4101 117.721 32.627 86.5853C32.8438 55.4495 58.3248 30.3816 89.4534 30.5984C120.588 30.8153 145.66 56.2352 145.444 87.371C145.227 118.507 119.808 143.575 88.6738 143.358Z" fill="#ffffff" fill-rule="nonzero" opacity="1" stroke="none"/>
<path d="M102.432 47.2149C102.05 47.2135 101.659 47.4353 101.347 47.8694L93.6577 57.7191L84.5549 48.5893C83.992 47.7227 82.7712 47.8165 82.4846 48.7857C80.7387 52.5702 79.9027 56.35 79.8885 60.2061C79.8422 72.7874 88.5001 81.9264 100.789 82.687L100.624 120.352C100.621 121.157 101.245 121.854 102.136 121.857C119.042 121.918 134.476 111.037 139.599 95.4491C140.046 94.3752 139.524 93.4246 138.35 93.4203C122.949 93.3641 109.598 102.565 103.746 116.654L103.911 82.7197C116.153 82.0059 124.798 72.9179 124.844 60.3697C124.858 56.5135 124.064 52.7464 122.346 48.9493C122.061 47.9781 120.922 47.8581 120.276 48.7202L111.107 57.7846L103.483 47.8694C103.175 47.4331 102.814 47.2163 102.432 47.2149Z" fill="#ffffff" fill-rule="nonzero" opacity="1" stroke="none"/>
<path d="M59.4484 72.9063C59.1681 72.9053 58.8815 73.0665 58.653 73.3819L53.0129 80.5386L46.3373 73.9058C45.9245 73.2762 45.0291 73.3444 44.8189 74.0485C43.5382 76.7983 42.9249 79.5445 42.9143 82.3462C42.8798 91.4873 49.2291 98.1269 58.2416 98.6789L58.1193 126.044C58.1171 126.629 58.5742 127.136 59.2279 127.138C71.6268 127.182 82.9466 119.275 86.7045 107.949C87.0323 107.169 86.6501 106.479 85.7888 106.475C74.4934 106.435 64.7016 113.121 60.4091 123.358L60.5312 98.7025C69.5096 98.1833 75.8503 91.58 75.8847 82.463C75.8953 79.6612 75.3136 76.9243 74.0536 74.1655C73.8444 73.4599 73.0092 73.3727 72.5352 73.9992L65.8106 80.5854L60.2196 73.3818C59.9934 73.0648 59.7286 72.9073 59.4484 72.9063Z" fill="#ffffff" fill-rule="nonzero" opacity="0.8" stroke="none"/>
<path d="M54.1253 68.8476C53.8451 68.8466 53.5584 69.0078 53.3299 69.3232L47.6898 76.4799L41.0142 69.847C40.6014 69.2174 39.7061 69.2856 39.4958 69.9898C38.2152 72.7395 37.6019 75.4858 37.5913 78.2875C37.5568 87.4286 43.906 94.0681 52.9186 94.6202L52.7963 121.986C52.794 122.571 53.2511 123.077 53.9048 123.079C66.3037 123.123 77.6236 115.217 81.3814 103.891C81.7092 103.11 81.327 102.42 80.4657 102.417C69.1703 102.377 59.3785 109.062 55.086 119.299L55.2082 94.6438C64.1865 94.1246 70.5273 87.5212 70.5617 78.4042C70.5723 75.6025 69.9905 72.8655 68.7305 70.1067C68.5214 69.4011 67.6862 69.314 67.2122 69.9404L60.4875 76.5266L54.8965 69.3231C54.6704 69.006 54.4056 68.8486 54.1253 68.8476Z" fill="#ffffff" fill-rule="nonzero" opacity="0.3" stroke="none"/>
<path d="M64.7513 69.0243C64.4711 69.0233 64.1844 69.1844 63.956 69.4998L58.3158 76.6566L51.6402 70.0237C51.2274 69.3941 50.3321 69.4623 50.1218 70.1664C48.8412 72.9162 48.2279 75.6625 48.2173 78.4642C48.1828 87.6052 54.5321 94.2448 63.5446 94.7968L63.4223 122.162C63.4201 122.747 63.8772 123.254 64.5309 123.256C76.9297 123.3 88.2496 115.393 92.0075 104.067C92.3352 103.287 91.953 102.596 91.0917 102.593C79.7964 102.553 70.0045 109.239 65.7121 119.476L65.8342 94.8205C74.8125 94.3012 81.1533 87.6979 81.1877 78.5809C81.1983 75.7792 80.6165 73.0422 79.3566 70.2834C79.1474 69.5778 78.3122 69.4907 77.8382 70.1171L71.1135 76.7033L65.5225 69.4997C65.2964 69.1827 65.0316 69.0252 64.7513 69.0243Z" fill="#ffffff" fill-rule="nonzero" opacity="0.5" stroke="none"/>
</g>
</g>
</svg>
