<?xml version="1.0" encoding="UTF-8" standalone="no"?>
<!DOCTYPE svg PUBLIC "-//W3C//DTD SVG 1.1//EN" "http://www.w3.org/Graphics/SVG/1.1/DTD/svg11.dtd">
<!-- Created with Vectornator (http://vectornator.io/) -->
<svg height="100%" stroke-miterlimit="10" style="fill-rule:nonzero;clip-rule:evenodd;stroke-linecap:round;stroke-linejoin:round;" version="1.1" viewBox="0 0 172.973 175.526" width="100%" xml:space="preserve" xmlns="http://www.w3.org/2000/svg" xmlns:xlink="http://www.w3.org/1999/xlink">
<defs>
<filter color-interpolation-filters="sRGB" filterUnits="userSpaceOnUse" height="72.4995" id="Filter" width="57.8076" x="37.3075" y="57.3124">
<feGaussianBlur in="SourceGraphic" result="Blur" stdDeviation="2.23625"/>
</filter>
</defs>
<g id="Symbols">
<g opacity="1">
<path d="M88.6485 146.977C121.597 147.206 148.838 120.347 149.068 87.3962C149.297 54.4456 122.428 27.2093 89.4786 26.9798C56.462 26.7498 29.3 53.6099 29.0706 86.5605C28.8411 119.511 55.6318 146.747 88.6485 146.977ZM88.6738 143.358C57.5449 143.141 32.4101 117.721 32.627 86.5853C32.8438 55.4495 58.3248 30.3816 89.4534 30.5984C120.588 30.8153 145.66 56.2352 145.444 87.371C145.227 118.507 119.808 143.575 88.6738 143.358Z" fill="#ffffff" fill-rule="nonzero" opacity="1" stroke="none"/>
<path d="M102.432 47.2149C102.05 47.2135 101.659 47.4353 101.347 47.8694L93.6577 57.7191L84.5549 48.5893C83.992 47.7227 82.7712 47.8165 82.4846 48.7857C80.7387 52.5702 79.9027 56.35 79.8885 60.2061C79.8422 72.7874 88.5001 81.9264 100.789 82.687L100.624 120.352C100.621 121.157 101.245 121.854 102.136 121.857C119.042 121.918 134.476 111.037 139.599 95.4491C140.046 94.3752 139.524 93.4246 138.35 93.4203C122.949 93.3641 109.598 102.565 103.746 116.654L103.911 82.7197C116.153 82.0059 124.798 72.9179 124.844 60.3697C124.858 56.5135 124.064 52.7464 122.346 48.9493C122.061 47.9781 120.922 47.8581 120.276 48.7202L111.107 57.7846L103.483 47.8694C103.175 47.4331 102.814 47.2163 102.432 47.2149Z" fill="#ffffff" fill-rule="nonzero" opacity="1" stroke="none"/>
<path d="M60.4479 62.903C60.1504 62.9018 59.8461 63.0839 59.6037 63.4404L53.6189 71.5298L46.5286 64.0272C46.09 63.3152 45.1395 63.3919 44.9166 64.1879C43.5581 67.2964 42.9082 70.4013 42.8983 73.569C42.8657 83.9046 49.6096 91.4146 59.1783 92.0428L59.0608 122.984C59.0587 123.645 59.5442 124.218 60.2382 124.221C73.4019 124.276 85.4165 115.342 89.4011 102.537C89.7487 101.655 89.3426 100.874 88.4282 100.87C76.436 100.82 66.0432 108.375 61.4906 119.947L61.6092 92.0705C71.1411 91.4875 77.87 84.0241 77.9025 73.7158C77.9124 70.548 77.2936 67.4531 75.9546 64.3333C75.7323 63.5353 74.8455 63.4365 74.3425 64.1445L67.206 71.5883L61.2669 63.441C61.0267 63.0824 60.7455 62.9043 60.4479 62.903Z" fill="#ffffff" fill-rule="nonzero" filter="url(#Filter)" opacity="1" stroke="none"/>
</g>
</g>
</svg>
